<svg width="current" height="current" viewBox="0 0 24 24" fill="none" xmlns="http://www.w3.org/2000/svg">
<path d="M11.7498 3C12.1295 3 12.4434 3.28201 12.4931 3.64808L12.5 3.74985L12.5012 11H19.7543C20.1685 11 20.5043 11.3358 20.5043 11.75C20.5043 12.1297 20.2221 12.4435 19.8561 12.4932L19.7543 12.5H12.5012L12.5032 19.7491C12.5033 20.1633 12.1676 20.4993 11.7534 20.4993C11.3737 20.4993 11.0598 20.2173 11.0101 19.8512L11.0032 19.7494L11.0012 12.5H3.7522C3.33798 12.5 3.0022 12.1642 3.0022 11.75C3.0022 11.3703 3.28435 11.0565 3.65043 11.0068L3.7522 11H11.0012L11 3.75015C10.9999 3.33594 11.3356 3 11.7498 3Z" fill="currentColor"/>
<path fill-rule="evenodd" clip-rule="evenodd" d="M11.7498 3.25C11.4738 3.25 11.2499 3.47391 11.25 3.75011L11.2512 11.25H3.7606L3.67651 11.2557C3.43637 11.292 3.2522 11.4997 3.2522 11.75C3.2522 12.0261 3.47605 12.25 3.7522 12.25H11.2511L11.2532 19.741L11.2589 19.8251C11.2953 20.0651 11.503 20.2493 11.7534 20.2493C12.0295 20.2493 12.2533 20.0254 12.2532 19.7492L12.2511 12.25H19.7459L19.83 12.2443C20.0701 12.208 20.2543 12.0003 20.2543 11.75C20.2543 11.4739 20.0304 11.25 19.7543 11.25H12.2512L12.25 3.75829L12.2443 3.67421C12.208 3.43412 12.0002 3.25 11.7498 3.25ZM10.75 3.7502C10.7499 3.19796 11.1975 2.75 11.7498 2.75C12.2562 2.75 12.6745 3.12605 12.7408 3.61442L12.742 3.6228L12.75 3.7414L12.7512 10.75H19.7543C20.3066 10.75 20.7543 11.1977 20.7543 11.75C20.7543 12.2565 20.378 12.6746 19.8897 12.7409L19.8813 12.742L19.7627 12.75H12.7513L12.7532 19.7491C12.7534 20.3013 12.3058 20.7493 11.7534 20.7493C11.247 20.7493 10.8287 20.3732 10.7624 19.8848L10.7612 19.8765L10.7532 19.7579L10.7513 12.75H3.7522C3.19991 12.75 2.7522 12.3023 2.7522 11.75C2.7522 11.2435 3.12847 10.8254 3.61682 10.7591L3.6252 10.758L3.7438 10.75H10.7512L10.75 3.7502Z" fill="currentColor"/>
</svg>
