<svg width="current" height="current" viewBox="0 0 24 24" fill="none" xmlns="http://www.w3.org/2000/svg">
<mask id="mask0_91_392" style="mask-type:luminance" maskUnits="userSpaceOnUse" x="0" y="0" width="24" height="24">
<path d="M24 0H0V24H24V0Z" fill="white"/>
</mask>
<g mask="url(#mask0_91_392)">
<path d="M21.9999 18.0086C21.9999 20.2191 20.2078 22.0116 17.9959 22.0116H5.98542C3.77499 22.0116 1.98242 20.2191 1.98242 18.0086V5.99765C1.98242 3.78622 3.77499 1.99365 5.98542 1.99365H17.9959C20.2083 1.99365 21.9999 3.78622 21.9999 5.99765V18.0086Z" fill="currentColor"/>
<path d="M17.855 3.52443H6.12826C4.63296 3.52443 3.4209 4.74099 3.4209 6.2413V12.6864C3.4209 14.1867 4.63246 15.4033 6.12826 15.4033H10.1673L11.546 17.6478C11.546 17.6478 11.5605 17.6743 11.591 17.7113C11.6716 17.8494 11.8202 17.9435 11.9914 17.9435C12.1625 17.9435 12.3097 17.8509 12.3907 17.7143C12.4253 17.6738 12.4373 17.6473 12.4373 17.6473L13.8155 15.4028H17.855C19.3498 15.4028 20.5624 14.1862 20.5624 12.6859V6.2408C20.5624 4.74049 19.3498 3.52393 17.855 3.52393" fill="white"/>
<path d="M7.22685 8.24719C7.22685 8.24719 6.75894 8.24719 6.33457 8.66005V6.99609H5.28516V11.3684H6.34558V11.0261C6.34558 11.0261 6.5958 11.478 7.22685 11.478C7.22685 11.478 8.70564 11.4235 8.70564 9.84658C8.70564 9.84658 8.6511 8.24769 7.22685 8.24769M6.99565 10.5552C6.62332 10.5552 6.32106 10.2529 6.32106 9.88061C6.32106 9.50829 6.62332 9.20653 6.99565 9.20653C7.36798 9.20653 7.66974 9.50829 7.66974 9.88061C7.66974 10.2529 7.36747 10.5552 6.99565 10.5552Z" fill="currentColor"/>
<path d="M9.04395 6.89795V7.90933C9.04395 7.90933 9.52286 7.88781 9.52286 8.77959V11.3679H10.5342V8.54038C10.5342 8.54038 10.5778 6.89795 9.04395 6.89795Z" fill="currentColor"/>
<path d="M13.0071 8.26062C13.0071 8.26062 11.2736 8.26062 11.2736 9.88004C11.2736 9.88004 11.2176 11.4774 13.0071 11.4774C13.0071 11.4774 14.7812 11.4749 14.7812 9.88004C14.7812 9.88004 14.8392 8.26062 13.0071 8.26062ZM13.0071 10.5546C12.6348 10.5546 12.3326 10.2524 12.3326 9.88004C12.3326 9.50771 12.6348 9.20595 13.0071 9.20595C13.3795 9.20595 13.6812 9.50771 13.6812 9.88004C13.6812 10.2524 13.379 10.5546 13.0071 10.5546Z" fill="currentColor"/>
<path d="M17.6761 8.36653V8.65978C17.6761 8.65978 17.3744 8.26044 16.7954 8.26044C16.7954 8.26044 15.3106 8.19788 15.3106 9.86884C15.3106 9.86884 15.294 11.4257 16.7543 11.4257C16.7543 11.4257 17.3498 11.4502 17.6756 11.0259V11.2711C17.6756 11.2711 17.7492 12.0377 17.0065 12.0377H16.7538V12.9675H17.1617C17.1617 12.9675 18.695 12.9841 18.695 11.3281V8.36703H17.6751L17.6761 8.36653ZM17.0491 10.5544C16.6767 10.5544 16.375 10.2522 16.375 9.87985C16.375 9.50752 16.6767 9.20576 17.0491 9.20576C17.4214 9.20576 17.7232 9.50752 17.7232 9.87985C17.7232 10.2522 17.4209 10.5544 17.0491 10.5544Z" fill="currentColor"/>
</g>
</svg>
