<svg width="current" height="current" viewBox="0 0 32 32" fill="none" xmlns="http://www.w3.org/2000/svg">
<path d="M9 2.66699C7.34315 2.66699 6 4.01014 6 5.66699V27.667C6 28.2193 6.44772 28.667 7 28.667H10V23.0003C10 22.448 10.4477 22.0003 11 22.0003H21C21.5523 22.0003 22 22.448 22 23.0003V28.667H25C25.5523 28.667 26 28.2193 26 27.667V15.6661C26 14.0092 24.6569 12.6661 23 12.6661H22V5.66699C22 4.01014 20.6569 2.66699 19 2.66699H9ZM10 8.66699C10 7.93061 10.597 7.33366 11.3333 7.33366C12.0697 7.33366 12.6667 7.93061 12.6667 8.66699C12.6667 9.40337 12.0697 10.0003 11.3333 10.0003C10.597 10.0003 10 9.40337 10 8.66699ZM11.3333 16.667C12.0697 16.667 12.6667 17.2639 12.6667 18.0003C12.6667 18.7367 12.0697 19.3337 11.3333 19.3337C10.597 19.3337 10 18.7367 10 18.0003C10 17.2639 10.597 16.667 11.3333 16.667ZM10 13.3337C10 12.5973 10.597 12.0003 11.3333 12.0003C12.0697 12.0003 12.6667 12.5973 12.6667 13.3337C12.6667 14.07 12.0697 14.667 11.3333 14.667C10.597 14.667 10 14.07 10 13.3337ZM16 7.33366C16.7364 7.33366 17.3333 7.93061 17.3333 8.66699C17.3333 9.40337 16.7364 10.0003 16 10.0003C15.2636 10.0003 14.6667 9.40337 14.6667 8.66699C14.6667 7.93061 15.2636 7.33366 16 7.33366ZM14.6667 18.0003C14.6667 17.2639 15.2636 16.667 16 16.667C16.7364 16.667 17.3333 17.2639 17.3333 18.0003C17.3333 18.7367 16.7364 19.3337 16 19.3337C15.2636 19.3337 14.6667 18.7367 14.6667 18.0003ZM20.6667 16.667C21.403 16.667 22 17.2639 22 18.0003C22 18.7367 21.403 19.3337 20.6667 19.3337C19.9303 19.3337 19.3333 18.7367 19.3333 18.0003C19.3333 17.2639 19.9303 16.667 20.6667 16.667ZM14.6667 13.3337C14.6667 12.5973 15.2636 12.0003 16 12.0003C16.7364 12.0003 17.3333 12.5973 17.3333 13.3337C17.3333 14.07 16.7364 14.667 16 14.667C15.2636 14.667 14.6667 14.07 14.6667 13.3337ZM20 28.667V24.0003H16.9999V28.667H20ZM14.9999 28.667V24.0003H12V28.667H14.9999Z" fill="currentColor"/>
</svg>
