<svg width="76" height="76" viewBox="0 0 76 76" fill="none" xmlns="http://www.w3.org/2000/svg">
<path d="M38 71.25C38.3366 71.6197 38.3368 71.6196 38.337 71.6193L38.338 71.6185L38.3416 71.6152L38.3551 71.6028L38.4073 71.5548C38.4531 71.5125 38.5207 71.4497 38.6086 71.3674C38.7844 71.2026 39.0415 70.9592 39.3682 70.6431C40.0216 70.0108 40.9539 69.0873 42.072 67.9199C44.3078 65.5858 47.2896 62.2735 50.2726 58.3619C56.2185 50.5648 62.25 40.2832 62.25 30.5837C62.25 16.7135 51.4102 5.4375 38 5.4375C24.5898 5.4375 13.75 16.7135 13.75 30.5837C13.75 40.2832 19.7815 50.5648 25.7274 58.3619C28.7104 62.2735 31.6922 65.5858 33.928 67.9199C35.0461 69.0873 35.9784 70.0108 36.6318 70.6431C36.9585 70.9592 37.2156 71.2026 37.3914 71.3674C37.4793 71.4497 37.5469 71.5125 37.5927 71.5548L37.6449 71.6028L37.6584 71.6152L37.662 71.6185L37.663 71.6193C37.6632 71.6196 37.6634 71.6197 38 71.25ZM38 71.25L38.3366 71.6197L38 71.9262L37.6634 71.6197L38 71.25Z" fill="#FF693A" stroke="white"/>
<circle cx="38" cy="29.6877" r="19.5938" fill="white"/>
<path fill-rule="evenodd" clip-rule="evenodd" d="M41.7321 16.6252H34.2679V25.9555H24.9375V33.4198H34.2679V42.7502H41.7321V33.4198H51.0625V25.9555H41.7321V16.6252Z" fill="#FF693A"/>
</svg>
