<svg width="current" height="current" viewBox="0 0 24 24" fill="none" xmlns="http://www.w3.org/2000/svg">
<path d="M8.46967 4.21967C8.17678 4.51256 8.17678 4.98744 8.46967 5.28033L15.1893 12L8.46967 18.7197C8.17678 19.0126 8.17678 19.4874 8.46967 19.7803C8.76256 20.0732 9.23744 20.0732 9.53033 19.7803L16.7803 12.5303C17.0732 12.2374 17.0732 11.7626 16.7803 11.4697L9.53033 4.21967C9.23744 3.92678 8.76256 3.92678 8.46967 4.21967Z" fill="currentColor"/>
<path fill-rule="evenodd" clip-rule="evenodd" d="M8.29289 4.04289C8.68342 3.65237 9.31658 3.65237 9.70711 4.04289L16.9571 11.2929C17.3476 11.6834 17.3476 12.3166 16.9571 12.7071L9.70711 19.9571C9.31658 20.3476 8.68342 20.3476 8.29289 19.9571C7.90237 19.5666 7.90237 18.9334 8.29289 18.5429L14.8358 12L8.29289 5.45711C7.90237 5.06658 7.90237 4.43342 8.29289 4.04289ZM9.35355 4.39645C9.15829 4.20118 8.84171 4.20118 8.64645 4.39645C8.45118 4.59171 8.45118 4.90829 8.64645 5.10355L15.3661 11.8232C15.4637 11.9209 15.4637 12.0791 15.3661 12.1768L8.64645 18.8964C8.45119 19.0917 8.45119 19.4083 8.64645 19.6036C8.84171 19.7988 9.15829 19.7988 9.35355 19.6036L16.6036 12.3536C16.7988 12.1583 16.7988 11.8417 16.6036 11.6464L9.35355 4.39645Z" fill="currentColor"/>
</svg>
