<svg width="current" height="current" viewBox="0 0 24 24" fill="none" xmlns="http://www.w3.org/2000/svg">
<path d="M20.0303 7.46967C19.7374 7.17678 19.2626 7.17678 18.9697 7.46967L12.25 14.1893L5.53033 7.46967C5.23744 7.17678 4.76256 7.17678 4.46967 7.46967C4.17678 7.76256 4.17678 8.23744 4.46967 8.53033L11.7197 15.7803C12.0126 16.0732 12.4874 16.0732 12.7803 15.7803L20.0303 8.53033C20.3232 8.23744 20.3232 7.76256 20.0303 7.46967Z" fill="currentColor"/>
<path fill-rule="evenodd" clip-rule="evenodd" d="M20.2071 7.29289C20.5976 7.68342 20.5976 8.31658 20.2071 8.70711L12.9571 15.9571C12.5666 16.3476 11.9334 16.3476 11.5429 15.9571L4.29289 8.70711C3.90237 8.31658 3.90237 7.68342 4.29289 7.29289C4.68342 6.90237 5.31658 6.90237 5.70711 7.29289L12.25 13.8358L18.7929 7.29289C19.1834 6.90237 19.8166 6.90237 20.2071 7.29289ZM19.8536 8.35355C20.0488 8.15829 20.0488 7.84171 19.8536 7.64645C19.6583 7.45118 19.3417 7.45118 19.1464 7.64645L12.4268 14.3661C12.3291 14.4637 12.1709 14.4637 12.0732 14.3661L5.35355 7.64645C5.15829 7.45118 4.84171 7.45118 4.64645 7.64645C4.45118 7.84171 4.45118 8.15829 4.64645 8.35355L11.8964 15.6036C12.0917 15.7988 12.4083 15.7988 12.6036 15.6036L19.8536 8.35355Z" fill="currentColor"/>
</svg>
