<svg width="current" height="current" viewBox="0 0 24 24" fill="none" xmlns="http://www.w3.org/2000/svg">
<path d="M4.46967 15.7803C4.76256 16.0732 5.23744 16.0732 5.53033 15.7803L12.25 9.06066L18.9697 15.7803C19.2626 16.0732 19.7374 16.0732 20.0303 15.7803C20.3232 15.4874 20.3232 15.0126 20.0303 14.7197L12.7803 7.46967C12.4874 7.17678 12.0126 7.17678 11.7197 7.46967L4.46967 14.7197C4.17678 15.0126 4.17678 15.4874 4.46967 15.7803Z" fill="currentColor"/>
<path fill-rule="evenodd" clip-rule="evenodd" d="M4.29289 15.9571C3.90237 15.5666 3.90237 14.9334 4.29289 14.5429L11.5429 7.29289C11.9334 6.90237 12.5666 6.90237 12.9571 7.29289L20.2071 14.5429C20.5976 14.9334 20.5976 15.5666 20.2071 15.9571C19.8166 16.3476 19.1834 16.3476 18.7929 15.9571L12.25 9.41421L5.70711 15.9571C5.31658 16.3476 4.68342 16.3476 4.29289 15.9571ZM4.64645 14.8964C4.45118 15.0917 4.45118 15.4083 4.64645 15.6036C4.84171 15.7988 5.15829 15.7988 5.35355 15.6036L12.0732 8.88388C12.1709 8.78625 12.3291 8.78625 12.4268 8.88388L19.1464 15.6036C19.3417 15.7988 19.6583 15.7988 19.8536 15.6036C20.0488 15.4083 20.0488 15.0917 19.8536 14.8964L12.6036 7.64645C12.4083 7.45118 12.0917 7.45118 11.8964 7.64645L4.64645 14.8964Z" fill="currentColor"/>
</svg>
