<svg width="current" height="current" viewBox="0 0 24 24" fill="none" xmlns="http://www.w3.org/2000/svg">
<path d="M17.9378 5.5603C18.2063 5.82878 18.2288 6.25012 18.0051 6.54414L17.938 6.62096L12.8122 11.7484L17.9409 16.8772C18.2338 17.17 18.2338 17.6449 17.9409 17.9378C17.6724 18.2063 17.251 18.2287 16.9571 18.0049L16.8803 17.9378L11.7515 12.8091L6.6271 17.9364C6.33426 18.2294 5.85933 18.2296 5.56644 17.9367C5.29795 17.6682 5.27544 17.2468 5.49911 16.9528L5.56622 16.876L10.6909 11.7484L5.56507 6.62262C5.27217 6.32973 5.27217 5.85486 5.56507 5.56196C5.83355 5.29348 6.25495 5.27111 6.54892 5.49484L6.62573 5.56196L11.7515 10.6878L16.8771 5.56051C17.1699 5.26756 17.6449 5.2674 17.9378 5.5603Z" fill="currentColor"/>
</svg>
