<svg width="current" height="current" viewBox="0 0 24 24" fill="none" xmlns="http://www.w3.org/2000/svg">
<path d="M17.9378 5.5603C18.2063 5.82878 18.2288 6.25012 18.0051 6.54414L17.938 6.62096L12.8122 11.7484L17.9409 16.8772C18.2338 17.17 18.2338 17.6449 17.9409 17.9378C17.6724 18.2063 17.251 18.2287 16.9571 18.0049L16.8803 17.9378L11.7515 12.8091L6.6271 17.9364C6.33426 18.2294 5.85933 18.2296 5.56644 17.9367C5.29795 17.6682 5.27544 17.2468 5.49911 16.9528L5.56622 16.876L10.6909 11.7484L5.56507 6.62262C5.27217 6.32973 5.27217 5.85486 5.56507 5.56196C5.83355 5.29348 6.25495 5.27111 6.54892 5.49484L6.62573 5.56196L11.7515 10.6878L16.8771 5.56051C17.1699 5.26756 17.6449 5.2674 17.9378 5.5603Z" fill="currentColor"/>
<path fill-rule="evenodd" clip-rule="evenodd" d="M17.761 5.73707C17.5658 5.54187 17.2492 5.54192 17.0539 5.73725L11.7516 11.0414L6.45489 5.74468L6.39143 5.68922C6.19594 5.5451 5.91885 5.56174 5.74184 5.73874C5.54658 5.934 5.54658 6.25059 5.74184 6.44585L11.0444 11.7484L5.74898 17.0468L5.69352 17.1103C5.54947 17.3058 5.56616 17.5828 5.74321 17.7599C5.93841 17.9551 6.25501 17.955 6.45027 17.7597C6.45027 17.7597 6.45026 17.7597 6.45027 17.7597L11.7515 12.4555L17.0511 17.7551L17.1146 17.8106C17.31 17.9547 17.5871 17.938 17.7641 17.761C17.9594 17.5658 17.9594 17.2492 17.7641 17.0539L12.4587 11.7485L17.7552 6.45015L17.8107 6.38668C17.9547 6.1912 17.9381 5.91413 17.761 5.73707ZM16.7003 5.38377C17.0907 4.9932 17.724 4.99294 18.1145 5.38352C18.4726 5.74159 18.5025 6.30325 18.2041 6.69551L18.1989 6.70224L18.1207 6.79176L13.1657 11.7484L18.1177 16.7004C18.5082 17.0909 18.5082 17.7241 18.1177 18.1146C17.7596 18.4727 17.1978 18.5023 16.8056 18.2039L16.7989 18.1987L16.7094 18.1205L11.7516 13.1627L6.80392 18.1132C6.41351 18.5037 5.78024 18.504 5.38966 18.1134C5.03159 17.7554 5.00173 17.1937 5.30015 16.8014L5.30527 16.7947L5.38346 16.7052L10.3374 11.7485L5.38829 6.7994C4.99777 6.40888 4.99777 5.77571 5.38829 5.38519C5.74642 5.02706 6.30817 4.99744 6.70033 5.29591L6.70707 5.30103L6.79657 5.37925L11.7515 10.3342L16.7003 5.38377C16.7003 5.38376 16.7003 5.38377 16.7003 5.38377Z" fill="currentColor"/>
</svg>
