<svg width="current" height="current" viewBox="0 0 24 24" fill="none" xmlns="http://www.w3.org/2000/svg">
<path d="M18.2498 20.5C18.664 20.4999 19 20.8356 19 21.2498C19 21.664 18.6644 21.9999 18.2502 22L5.25022 22.0038C4.836 22.0039 4.5 21.6682 4.5 21.254C4.5 20.8398 4.83557 20.5039 5.24978 20.5038L18.2498 20.5ZM11.6482 2.01179L11.75 2.00494C12.1297 2.00494 12.4435 2.2871 12.4932 2.65317L12.5 2.75494L12.499 16.4399L16.2208 12.7196C16.4871 12.4534 16.9038 12.4292 17.1974 12.6471L17.2815 12.7197C17.5477 12.986 17.5719 13.4027 17.354 13.6963L17.2814 13.7804L12.2837 18.777C12.0176 19.0431 11.6012 19.0674 11.3076 18.8498L11.2235 18.7773L6.22003 13.7807C5.92694 13.488 5.92661 13.0131 6.21931 12.72C6.48539 12.4536 6.90204 12.4291 7.1958 12.6467L7.27997 12.7193L10.999 16.4329L11 2.75494C11 2.37525 11.2822 2.06145 11.6482 2.01179L11.75 2.00494L11.6482 2.01179Z" fill="currentColor"/>
<path fill-rule="evenodd" clip-rule="evenodd" d="M11.7416 1.75494H11.75C12.2565 1.75494 12.6746 2.13122 12.7409 2.61957L12.742 2.62795L12.75 2.74655L12.749 15.8365L16.0441 12.5428C16.0441 12.5428 16.0441 12.5428 16.0441 12.5428C16.3993 12.1877 16.9547 12.1557 17.3464 12.4463L17.3538 12.4518L17.4518 12.5365L17.4583 12.543C17.8134 12.8982 17.8454 13.4536 17.5547 13.8453L17.5492 13.8527L17.4646 13.9507L12.4605 18.9538C12.1055 19.3087 11.5504 19.3409 11.1588 19.0507L11.1513 19.0452L11.0533 18.9607L6.04338 13.9576C5.65259 13.5673 5.65215 12.9342 6.04241 12.5434C6.39735 12.188 6.95277 12.1555 7.34463 12.4459L7.35205 12.4514L7.45014 12.5359L10.749 15.8301L10.75 2.75494C10.75 2.75494 10.75 2.75495 10.75 2.75494C10.75 2.24849 11.1263 1.83031 11.6146 1.76406L11.623 1.76292L11.7416 1.75494ZM11.7576 2.255L11.6743 2.2606C11.4342 2.29692 11.25 2.50463 11.25 2.75494L11.249 17.0358L7.1098 12.9027L7.04026 12.8427C6.845 12.703 6.57142 12.7212 6.39621 12.8967C6.20108 13.0921 6.20129 13.4087 6.39669 13.6038L11.3936 18.5939L11.4631 18.6538C11.6583 18.7935 11.9317 18.7754 12.107 18.6002L17.0981 13.6101L17.1581 13.5406C17.2964 13.3476 17.2804 13.0779 17.1105 12.9024L17.0417 12.843C16.8465 12.7031 16.5729 12.7211 16.3976 12.8964L12.249 17.0434L12.25 2.76334L12.2443 2.67925C12.2084 2.44154 12.0045 2.25867 11.7576 2.255ZM18.2499 20.75L5.24986 20.7538C4.97378 20.7538 4.75 20.9777 4.75 21.254C4.75 21.53 4.97394 21.7538 5.25014 21.7538L18.2501 21.75C18.5262 21.7499 18.75 21.526 18.75 21.2498C18.75 20.9738 18.5261 20.7499 18.2499 20.75ZM5.24971 20.2538L18.2497 20.25C18.8019 20.2498 19.25 20.6974 19.25 21.2498C19.25 21.8019 18.8026 22.2498 18.2503 22.25L5.25029 22.2538C4.69807 22.2539 4.25 21.8064 4.25 21.254C4.25 20.7018 4.69736 20.2539 5.24971 20.2538Z" fill="currentColor"/>
</svg>
