<svg width="current" height="current" viewBox="0 0 24 24" fill="none" xmlns="http://www.w3.org/2000/svg">
<path fill-rule="evenodd" clip-rule="evenodd" d="M12.5751 2.12L22.6801 7.573L22.6781 7.576C23.1621 7.838 23.3451 8.445 23.0821 8.931C22.8201 9.417 22.2131 9.598 21.7281 9.335L20.9911 8.937L19.4031 20.162C19.1851 21.402 18.0911 22.25 16.7411 22.25H14.5875L14.9475 15.0499C14.9761 14.4788 14.5206 14 13.9487 14H10.0512C9.47935 14 9.02394 14.4788 9.0525 15.0499L9.4125 22.25H7.45905C6.10905 22.25 5.01505 21.402 4.79905 20.188L3.20905 8.938L2.47505 9.334C2.32405 9.416 2.16005 9.454 2.00005 9.454C1.64505 9.454 1.30005 9.264 1.12005 8.929C0.858055 8.443 1.03905 7.837 1.52505 7.573L11.6251 2.12C11.9211 1.96 12.2781 1.96 12.5751 2.12Z" fill="currentColor"/>
</svg>
