<svg width="current" height="current" viewBox="0 0 24 24" fill="none" xmlns="http://www.w3.org/2000/svg">
<path fill-rule="evenodd" clip-rule="evenodd" d="M6 5.4C6 4.07452 7.07452 3 8.4 3H15.6C16.9255 3 18 4.07452 18 5.4V9H19.6C20.9255 9 22 10.0745 22 11.4V18.6C22 19.9255 20.9255 21 19.6 21H15.6H13.6H10.4H8.4H4.4C3.07452 21 2 19.9255 2 18.6V11.4C2 10.0745 3.07452 9 4.4 9H6V5.4Z" fill="currentColor"/>
<path fill-rule="evenodd" clip-rule="evenodd" d="M11.25 10.25C11.25 10.6642 11.5858 11 12 11C12.4142 11 12.75 10.6642 12.75 10.25L12.75 8.6625H14.25C14.6642 8.6625 15 8.32671 15 7.9125C15 7.49829 14.6642 7.25 14.25 7.25H12.75V5.75C12.75 5.33579 12.4142 5 12 5C11.5858 5 11.25 5.33579 11.25 5.75V7.25H9.75C9.33579 7.25 9 7.49829 9 7.9125C9 8.32671 9.33579 8.6625 9.75 8.6625H11.25L11.25 10.25Z" fill="white"/>
<path d="M8 13.8421C8 13.377 8.37807 13 8.84444 13H11.8V21H8V13.8421Z" fill="white"/>
<path d="M12.2 13H15.1555C15.6219 13 16 13.377 16 13.8421V21H12.2V13Z" fill="white"/>
</svg>
