<svg width="current" height="current" viewBox="0 0 24 24" fill="none" xmlns="http://www.w3.org/2000/svg">
<path d="M16.2274 2H7.77255C4.58462 2 2 4.58462 2 7.77255V16.2274C2 19.4154 4.58462 22 7.77255 22H16.2274C19.4154 22 22 19.4154 22 16.2274V7.77255C22 4.58462 19.4154 2 16.2274 2ZM20.1589 16.3762C20.1589 18.492 18.4438 20.2085 16.3266 20.2085H7.67342C5.55757 20.2085 3.8411 18.4934 3.8411 16.3762V7.72299C3.8411 5.60714 5.55615 3.89067 7.67342 3.89067H16.3266C18.4424 3.89067 20.1589 5.60572 20.1589 7.72299V16.3762Z" fill="currentColor"/>
<path d="M12 6.86194C9.13353 6.86194 6.81091 9.18597 6.81091 12.051C6.81091 14.916 9.13495 17.2401 12 17.2401C14.865 17.2401 17.189 14.916 17.189 12.051C17.189 9.18597 14.865 6.86194 12 6.86194ZM12 15.416C10.1419 15.416 8.63643 13.9091 8.63643 12.0524C8.63643 10.1957 10.1433 8.68888 12 8.68888C13.8567 8.68888 15.3635 10.1957 15.3635 12.0524C15.3635 13.9091 13.8567 15.416 12 15.416Z" fill="currentColor"/>
<path d="M17.3618 7.87311C18.0298 7.87311 18.5713 7.33162 18.5713 6.66365C18.5713 5.99569 18.0298 5.45419 17.3618 5.45419C16.6938 5.45419 16.1523 5.99569 16.1523 6.66365C16.1523 7.33162 16.6938 7.87311 17.3618 7.87311Z" fill="currentColor"/>
</svg>
