<svg width="49" height="48" viewBox="0 0 49 48" fill="none" xmlns="http://www.w3.org/2000/svg">
<circle cx="24.5" cy="24" r="24" fill="#FAE100"/>
<g clip-path="url(#clip0_309_3652)">
<path d="M24.5015 10C16.215 10 9.5 15.3786 9.5 22.0171C9.5 26.336 12.3453 30.125 16.6162 32.2413C16.3031 33.4273 15.4793 36.5417 15.3152 37.2071C15.1115 38.0327 15.6131 38.0235 15.9414 37.8017C16.1998 37.6261 20.0512 34.9707 21.714 33.8278C22.6168 33.9633 23.547 34.0342 24.4985 34.0342C32.782 34.0342 39.5 28.6556 39.5 22.0171C39.5 15.3786 32.785 10 24.5015 10Z" fill="#371D1E"/>
<path d="M14.0354 19.805H15.5796C15.5796 19.805 15.5888 24.1024 15.5796 25.1035C15.5796 25.8336 17.1847 25.8429 17.1847 25.1128L17.1907 19.8605C17.1907 19.8605 17.7075 19.8636 18.7259 19.8636C19.6864 19.8636 19.6864 18.3326 18.7259 18.3326C17.6437 18.3326 14.0293 18.3018 14.0293 18.3018C13.1235 18.3018 13.1265 19.802 14.0293 19.802" fill="#FAE100"/>
<mask id="mask0_309_3652" style="mask-type:luminance" maskUnits="userSpaceOnUse" x="13" y="18" width="7" height="8">
<path d="M14.0354 19.805H15.5796C15.5796 19.805 15.5888 24.1024 15.5796 25.1035C15.5796 25.8336 17.1847 25.8429 17.1847 25.1128L17.1907 19.8605C17.1907 19.8605 17.7075 19.8636 18.7259 19.8636C19.6864 19.8636 19.6864 18.3326 18.7259 18.3326C17.6437 18.3326 14.0293 18.3018 14.0293 18.3018C13.1235 18.3018 13.1265 19.802 14.0293 19.802" fill="white"/>
</mask>
<g mask="url(#mask0_309_3652)">
<path d="M19.6895 18.3047H13.1265V25.8458H19.6895V18.3047Z" fill="#FAE100"/>
</g>
<path d="M21.4252 20.0826L22.2855 22.8119H20.495L21.4252 20.0826ZM20.4616 18.8042C20.0816 19.6513 18.7107 23.656 18.2547 24.7188C17.9264 25.4858 19.346 26.1112 19.6743 25.3441L19.9843 24.2505H22.8083C22.8083 24.2505 22.7111 24.2967 23.085 25.2979C23.3889 26.1112 24.8572 25.5474 24.5502 24.7342C24.1155 23.5728 22.6168 19.3956 22.3432 18.8042C22.2186 18.53 21.7657 18.3359 21.3279 18.3359C20.9662 18.3359 20.6105 18.4715 20.4616 18.8042Z" fill="#FAE100"/>
<mask id="mask1_309_3652" style="mask-type:luminance" maskUnits="userSpaceOnUse" x="18" y="18" width="7" height="8">
<path d="M21.4252 20.0826L22.2855 22.8119H20.495L21.4252 20.0826ZM20.4616 18.8042C20.0816 19.6513 18.7107 23.656 18.2547 24.7188C17.9264 25.4858 19.346 26.1112 19.6743 25.3441L19.9843 24.2505H22.8083C22.8083 24.2505 22.7111 24.2967 23.085 25.2979C23.3889 26.1112 24.8572 25.5474 24.5502 24.7342C24.1155 23.5728 22.6168 19.3956 22.3432 18.8042C22.2186 18.53 21.7657 18.3359 21.3279 18.3359C20.9662 18.3359 20.6105 18.4715 20.4616 18.8042Z" fill="white"/>
</mask>
<g mask="url(#mask1_309_3652)">
<path d="M24.8602 18.3359H17.9264V26.1142H24.8602V18.3359Z" fill="#FAE100"/>
</g>
<path d="M25.0943 19.0568C25.0943 20.4184 25.1034 24.805 25.1034 24.805C25.1034 24.805 24.9788 25.6768 25.7174 25.6768C26.4561 25.6768 28.0915 25.6676 28.8181 25.6676C29.5446 25.6676 29.5385 24.1027 28.815 24.1027C28.0915 24.1027 26.7662 24.0934 26.7662 24.0934C26.7662 24.0934 26.7723 20.0364 26.7692 19.0506C26.7692 18.5731 26.3497 18.3359 25.9333 18.3359C25.5168 18.3359 25.0973 18.5762 25.0973 19.0537" fill="#FAE100"/>
<mask id="mask2_309_3652" style="mask-type:luminance" maskUnits="userSpaceOnUse" x="25" y="18" width="5" height="8">
<path d="M25.0943 19.0568C25.0943 20.4184 25.1034 24.805 25.1034 24.805C25.1034 24.805 24.9788 25.6768 25.7174 25.6768C26.4561 25.6768 28.0915 25.6676 28.8181 25.6676C29.5446 25.6676 29.5385 24.1027 28.815 24.1027C28.0915 24.1027 26.7662 24.0934 26.7662 24.0934C26.7662 24.0934 26.7723 20.0364 26.7692 19.0506C26.7692 18.5731 26.3497 18.3359 25.9333 18.3359C25.5168 18.3359 25.0973 18.5762 25.0973 19.0537" fill="white"/>
</mask>
<g mask="url(#mask2_309_3652)">
<path d="M29.5415 18.3359H24.9788V25.6737H29.5415V18.3359Z" fill="#FAE100"/>
</g>
<path d="M29.7361 18.8379C29.7513 19.4355 29.7179 24.8295 29.7179 25.23C29.7179 25.8615 31.3046 25.8584 31.3016 25.23C31.3016 24.4968 31.3016 23.1075 31.3016 23.1075L31.7667 22.7286L33.8034 25.5442C34.2137 26.0956 35.5087 25.1006 35.0983 24.5492L32.937 21.6627C32.937 21.6627 34.4053 20.0547 34.9828 19.4725C35.3202 19.1336 34.2745 18.0647 33.9371 18.4066C33.6088 18.7363 31.3107 21.0682 31.3107 21.0682C31.3107 21.0682 31.332 19.605 31.3107 18.7948C31.3016 18.4867 30.9307 18.3389 30.5508 18.3389C30.1434 18.3389 29.727 18.5083 29.7361 18.8379Z" fill="#FAE100"/>
<mask id="mask3_309_3652" style="mask-type:luminance" maskUnits="userSpaceOnUse" x="29" y="18" width="7" height="8">
<path d="M29.7361 18.8379C29.7513 19.4355 29.7179 24.8295 29.7179 25.23C29.7179 25.8615 31.3046 25.8584 31.3016 25.23C31.3016 24.4968 31.3016 23.1075 31.3016 23.1075L31.7667 22.7286L33.8034 25.5442C34.2137 26.0956 35.5087 25.1006 35.0983 24.5492L32.937 21.6627C32.937 21.6627 34.4053 20.0547 34.9828 19.4725C35.3202 19.1336 34.2745 18.0647 33.9371 18.4066C33.6088 18.7363 31.3107 21.0682 31.3107 21.0682C31.3107 21.0682 31.332 19.605 31.3107 18.7948C31.3016 18.4867 30.9307 18.3389 30.5508 18.3389C30.1434 18.3389 29.727 18.5083 29.7361 18.8379Z" fill="white"/>
</mask>
<g mask="url(#mask3_309_3652)">
<path d="M35.5118 18.0674H29.7179V26.0921H35.5118V18.0674Z" fill="#FAE100"/>
</g>
</g>
<defs>
<clipPath id="clip0_309_3652">
<rect width="30" height="27.931" fill="white" transform="translate(9.5 10)"/>
</clipPath>
</defs>
</svg>
