<svg width="54" height="24" viewBox="0 0 54 24" fill="none" xmlns="http://www.w3.org/2000/svg">
<path d="M16.7788 14.3332C16.1783 13.7866 15.0415 13.1182 15.0993 12.2936C15.1507 11.5253 16.2265 10.9162 16.8302 10.4008L17.7615 9.60125C19.2804 8.29878 19.1487 6.2217 17.7454 4.89424C16.2875 3.51681 13.8084 3.25444 12.1482 4.54129C12.0968 4.5819 12.0487 4.61938 12.0037 4.65998L10.7192 5.7563C10.2664 6.09988 9.11355 6.80266 7.09045 6.78704V4.13212C7.09046 3.27968 6.74297 2.46201 6.12416 1.85836C5.50534 1.25472 4.6657 0.914346 3.78929 0.911865H3.31401C2.43563 0.911865 1.59319 1.25104 0.971787 1.85487C0.35038 2.45869 0.000851141 3.27777 0 4.13212V19.8648C0 20.2881 0.0857067 20.7073 0.252252 21.0984C0.418797 21.4895 0.662915 21.8448 0.97065 22.1441C1.27839 22.4434 1.64371 22.6809 2.04579 22.8429C2.44786 23.0048 2.8788 23.0882 3.31401 23.0882H3.78929C4.29767 23.0924 4.8001 22.9817 5.25703 22.7649C5.71396 22.5481 6.11293 22.2311 6.42253 21.8389C6.94275 21.1517 7.01661 20.374 7.06478 19.5494C7.08882 19.1005 7.00868 18.6522 6.83034 18.2375C6.48353 17.4348 5.64218 17.0975 4.94855 16.6383C4.05961 16.0649 3.40077 15.2112 3.0828 14.2208C2.80578 13.2013 2.82915 12.1265 3.15025 11.1192C3.33378 10.6175 3.5831 10.1409 3.89205 9.7012C4.17625 9.25101 4.53295 8.84816 4.94855 8.50805C5.05016 8.42125 5.15742 8.34091 5.26967 8.26754C5.18297 8.81727 5.13481 9.33263 5.13481 9.33263C6.96523 8.0489 8.38139 8.08326 8.38139 8.08326C7.54004 8.51117 7.63316 8.94221 7.63316 8.94221C8.91766 8.94221 9.94849 7.60538 9.94849 7.60538C9.90032 8.54241 9.49249 8.85475 9.49249 8.85475C9.49249 8.85475 9.85214 9.04215 9.89709 9.07026C10.0216 9.14649 10.1397 9.23213 10.2503 9.32639C10.4359 9.48242 10.599 9.66207 10.7352 9.86049C11.0554 10.341 11.2414 10.8943 11.2747 11.4659C11.286 11.6542 11.286 11.843 11.2747 12.0313C11.262 12.1162 11.262 12.2025 11.2747 12.2874C11.355 12.5623 12.2381 13.0683 12.2381 13.0683C12.2381 13.0683 12.4886 13.2463 12.2028 13.4712C12.0321 13.5928 11.8541 13.7044 11.6697 13.8054C11.856 14.2152 11.9648 14.6543 11.9908 15.1016C11.9652 16.4447 10.3338 16.8351 10.3338 16.8351C10.0127 16.9194 10.093 17.5067 10.1251 17.7378C10.2177 18.1642 10.4125 18.5634 10.6935 18.9028C11.3031 19.7532 12.1612 20.4061 13.1565 20.7769C14.2574 21.1557 15.4667 21.1031 16.5284 20.6301C18.8469 19.6025 19.624 16.882 17.7711 15.2078L16.7788 14.3332ZM13.7249 8.8079L13.452 9.08901L13.6382 9.42634C13.6597 9.47005 13.6667 9.51916 13.6583 9.56691C13.6499 9.61465 13.6264 9.65868 13.5912 9.69294C13.556 9.72719 13.5107 9.74998 13.4616 9.75818C13.4125 9.76637 13.362 9.75956 13.3171 9.73868L12.9639 9.57314L12.6909 9.85112C12.6559 9.88755 12.6098 9.91216 12.5594 9.92135C12.509 9.93055 12.4569 9.92386 12.4107 9.90225C12.3645 9.88064 12.3265 9.84525 12.3024 9.80122C12.2783 9.7572 12.2693 9.70683 12.2767 9.65747L12.328 9.27954L11.9748 9.11087C11.9294 9.08945 11.8922 9.05473 11.8682 9.01161C11.8442 8.96848 11.8347 8.91912 11.8411 8.87048C11.8475 8.82184 11.8694 8.77638 11.9037 8.74049C11.9381 8.70461 11.9832 8.68012 12.0326 8.67047L12.4212 8.60175L12.4757 8.22069C12.4821 8.17185 12.5043 8.12626 12.5391 8.09055C12.574 8.05485 12.6196 8.03089 12.6694 8.02218C12.7192 8.01347 12.7706 8.02045 12.8161 8.04211C12.8615 8.06377 12.8987 8.09898 12.9221 8.14261L13.1116 8.47682L13.5194 8.42684C13.5663 8.42334 13.6133 8.43329 13.6545 8.45546C13.6956 8.47763 13.7292 8.51105 13.7511 8.55159C13.7729 8.59212 13.7821 8.638 13.7775 8.68355C13.7728 8.72911 13.7546 8.77233 13.7249 8.8079Z" fill="#FF693A"/>
<path d="M24.6619 7.04485C24.3335 7.04485 24.0637 7.01627 23.8525 6.95911C23.6414 6.89053 23.4772 6.8048 23.3599 6.70192C23.2426 6.58761 23.1605 6.46187 23.1135 6.3247C23.0783 6.1761 23.0607 6.01607 23.0607 5.8446C23.0607 5.70743 23.0783 5.57026 23.1135 5.43309C23.1605 5.28449 23.2426 5.15875 23.3599 5.05587C23.4772 4.94157 23.6414 4.85012 23.8525 4.78153C24.0637 4.71295 24.3335 4.67866 24.6619 4.67866H29.2014C29.5181 4.67866 29.7644 4.71295 29.9404 4.78153C30.1163 4.83869 30.2512 4.92442 30.3451 5.03873C30.4389 5.14161 30.4976 5.27306 30.521 5.43309C30.5445 5.59313 30.5562 5.77602 30.5562 5.98177V12.8746C30.5562 13.1032 30.5386 13.3833 30.5034 13.7148C30.4682 14.0463 30.4096 14.4063 30.3275 14.795C30.2454 15.1836 30.1339 15.5837 29.9932 15.9952C29.8641 16.3953 29.6999 16.7782 29.5005 17.144C29.3011 17.5212 29.0665 17.8584 28.7967 18.1556C28.5387 18.4529 28.2395 18.6872 27.8994 18.8586C27.5475 19.0301 27.2249 19.0644 26.9316 18.9615C26.6501 18.8586 26.4155 18.71 26.2278 18.5157C26.1105 18.4128 26.0284 18.2814 25.9815 18.1214C25.9346 17.9613 25.917 17.7956 25.9287 17.6241C25.9405 17.4526 25.9757 17.2755 26.0343 17.0926C26.1047 16.9211 26.1927 16.7611 26.2982 16.6125C26.5446 16.2581 26.7498 15.9266 26.9141 15.618C27.0783 15.3094 27.2073 15.0007 27.3011 14.6921C27.4067 14.3835 27.483 14.0634 27.5299 13.7319C27.5768 13.4004 27.6061 13.0403 27.6179 12.6517H24.4508C24.1223 12.6517 23.8525 12.6231 23.6414 12.566C23.4302 12.4974 23.266 12.4116 23.1487 12.3088C23.0314 12.1945 22.9493 12.0687 22.9024 11.9315C22.8672 11.7829 22.8496 11.6229 22.8496 11.4514C22.8496 11.3143 22.8672 11.1771 22.9024 11.0399C22.9493 10.8913 23.0314 10.7656 23.1487 10.6627C23.266 10.5484 23.4302 10.457 23.6414 10.3884C23.8525 10.3198 24.1223 10.2855 24.4508 10.2855H27.6354V7.04485H24.6619ZM33.6089 5.96463C33.6089 5.39309 33.7497 5.00444 34.0312 4.79868C34.3245 4.58149 34.6588 4.4729 35.0341 4.4729C35.2218 4.4729 35.3978 4.49576 35.562 4.54149C35.7379 4.58721 35.8904 4.66723 36.0195 4.78153C36.1485 4.89584 36.2541 5.05016 36.3362 5.24448C36.4183 5.43881 36.4593 5.67886 36.4593 5.96463V17.6756C36.4593 17.9728 36.4183 18.2185 36.3362 18.4128C36.2541 18.6072 36.1485 18.7615 36.0195 18.8758C35.8904 18.9901 35.7379 19.0701 35.562 19.1158C35.3978 19.1616 35.2218 19.1844 35.0341 19.1844C34.8465 19.1844 34.6646 19.1616 34.4887 19.1158C34.3245 19.0701 34.172 18.9901 34.0312 18.8758C33.9022 18.7615 33.7966 18.6072 33.7145 18.4128C33.6441 18.2185 33.6089 17.9728 33.6089 17.6756V5.96463Z" fill="#FF693A"/>
<path d="M42.533 17.0068V17.607H51.4361C51.7646 17.607 52.0343 17.6298 52.2455 17.6756C52.4566 17.7327 52.6208 17.8013 52.7381 17.8813C52.8554 17.9728 52.9317 18.0756 52.9669 18.1899C53.0138 18.3042 53.0373 18.43 53.0373 18.5672C53.0373 18.7272 53.0138 18.8644 52.9669 18.9787C52.9317 19.1044 52.8554 19.2073 52.7381 19.2873C52.6208 19.3673 52.4566 19.4245 52.2455 19.4588C52.0343 19.5045 51.7646 19.5274 51.4361 19.5274H41.1079C40.7794 19.5274 40.5214 19.4931 40.3337 19.4245C40.146 19.3673 39.9994 19.2816 39.8938 19.1673C39.8 19.053 39.7413 18.9215 39.7178 18.7729C39.6944 18.6243 39.6827 18.47 39.6827 18.31V16.2353C39.6827 16.121 39.6944 16.0124 39.7178 15.9095C39.753 15.7952 39.8176 15.698 39.9114 15.618C40.0052 15.5265 40.1401 15.458 40.3161 15.4122C40.492 15.3551 40.7266 15.3265 41.0199 15.3265H49.7998V14.8293H40.8615C40.3689 14.8293 40.0404 14.755 39.8762 14.6064C39.712 14.4578 39.6299 14.2406 39.6299 13.9548C39.6299 13.7262 39.712 13.5261 39.8762 13.3547C40.0404 13.1832 40.3689 13.0975 40.8615 13.0975H51.3305C51.6121 13.0975 51.8408 13.1318 52.0168 13.2004C52.1927 13.2575 52.3276 13.3318 52.4214 13.4233C52.5153 13.5147 52.5739 13.6176 52.5974 13.7319C52.6326 13.8462 52.6502 13.9605 52.6502 14.0748V16.1152C52.6502 16.3896 52.5681 16.6068 52.4038 16.7668C52.2396 16.9268 51.876 17.0068 51.3129 17.0068H42.533ZM41.0903 10.0969C40.7618 10.0969 40.5038 10.0683 40.3161 10.0112C40.1284 9.94257 39.9818 9.85684 39.8762 9.75396C39.7824 9.63965 39.7237 9.51391 39.7003 9.37674C39.6768 9.22814 39.6651 9.06811 39.6651 8.89665V5.96463C39.6651 5.67886 39.7003 5.45024 39.7706 5.27878C39.8527 5.10731 39.9583 4.97586 40.0873 4.88441C40.2164 4.78153 40.363 4.71866 40.5272 4.6958C40.6914 4.66151 40.8674 4.64436 41.0551 4.64436C41.2427 4.64436 41.4246 4.66151 41.6005 4.6958C41.7765 4.71866 41.9348 4.78153 42.0756 4.88441C42.2163 4.97586 42.3278 5.10731 42.4099 5.27878C42.492 5.45024 42.533 5.67886 42.533 5.96463V5.98177H49.7822V5.96463C49.7822 5.67886 49.8232 5.45024 49.9053 5.27878C49.9875 5.10731 50.0989 4.97586 50.2397 4.88441C50.3804 4.78153 50.5388 4.71866 50.7147 4.6958C50.8907 4.66151 51.0725 4.64436 51.2602 4.64436C51.4478 4.64436 51.6238 4.66151 51.788 4.6958C51.9522 4.71866 52.0989 4.78153 52.2279 4.88441C52.3569 4.97586 52.4566 5.10731 52.527 5.27878C52.6091 5.45024 52.6502 5.67886 52.6502 5.96463V8.89665C52.6502 9.06811 52.6384 9.22814 52.615 9.37674C52.5915 9.51391 52.527 9.63965 52.4214 9.75396C52.3276 9.85684 52.1868 9.94257 51.9992 10.0112C51.8115 10.0683 51.5534 10.0969 51.225 10.0969H41.0903ZM39.5947 12.4116C39.1841 12.4116 38.885 12.3488 38.6973 12.223C38.5214 12.0859 38.4334 11.863 38.4334 11.5543C38.4334 11.3028 38.5214 11.1028 38.6973 10.9542C38.885 10.7942 39.1841 10.7142 39.5947 10.7142H52.7381C53.1487 10.7142 53.4419 10.7942 53.6179 10.9542C53.8056 11.1028 53.8994 11.3028 53.8994 11.5543C53.8994 11.863 53.8056 12.0859 53.6179 12.223C53.4419 12.3488 53.1487 12.4116 52.7381 12.4116H39.5947ZM49.7822 8.33082V7.66211H42.533V8.33082H49.7822Z" fill="#FF693A"/>
</svg>
