<svg width="current" height="current" viewBox="0 0 24 24" fill="none" xmlns="http://www.w3.org/2000/svg">
<path d="M16.2506 5.18011C15.9994 5.50947 16.0627 5.9801 16.3921 6.23128C18.1804 7.59515 19.25 9.70821 19.25 12C19.25 15.736 16.4242 18.812 12.7933 19.2071L13.4697 18.5303C13.7626 18.2374 13.7626 17.7626 13.4697 17.4697C13.2034 17.2034 12.7867 17.1792 12.4931 17.3971L12.409 17.4697L10.409 19.4697C10.1427 19.7359 10.1185 20.1526 10.3364 20.4462L10.409 20.5303L12.409 22.5303C12.7019 22.8232 13.1768 22.8232 13.4697 22.5303C13.7359 22.2641 13.7601 21.8474 13.5423 21.5538L13.4697 21.4697L12.7194 20.7208C17.2154 20.355 20.75 16.5903 20.75 12C20.75 9.23526 19.4582 6.68321 17.3017 5.03856C16.9724 4.78738 16.5017 4.85075 16.2506 5.18011ZM10.5303 1.46967C10.2374 1.76256 10.2374 2.23744 10.5303 2.53033L11.2796 3.27923C6.78409 3.6456 3.25 7.41008 3.25 12C3.25 14.6445 4.43126 17.0974 6.43081 18.7491C6.75016 19.0129 7.22289 18.9679 7.48669 18.6485C7.75048 18.3292 7.70545 17.8564 7.3861 17.5926C5.72793 16.2229 4.75 14.1922 4.75 12C4.75 8.26436 7.57532 5.18861 11.2057 4.79301L10.5303 5.46967C10.2374 5.76256 10.2374 6.23744 10.5303 6.53033C10.8232 6.82322 11.2981 6.82322 11.591 6.53033L13.591 4.53033C13.8839 4.23744 13.8839 3.76256 13.591 3.46967L11.591 1.46967C11.2981 1.17678 10.8232 1.17678 10.5303 1.46967Z" fill="currentColor"/>
<path fill-rule="evenodd" clip-rule="evenodd" d="M10.3536 1.29289C10.7441 0.902369 11.3772 0.902369 11.7678 1.29289L13.7678 3.29289C14.1583 3.68342 14.1583 4.31658 13.7678 4.70711L11.7678 6.70711C11.3772 7.09763 10.7441 7.09763 10.3536 6.70711C9.96303 6.31658 9.96303 5.68342 10.3536 5.29289L10.481 5.16522C7.34542 5.85892 5 8.6557 5 12C5 14.1167 5.94393 16.0771 7.54531 17.3999C7.97111 17.7516 8.03116 18.3819 7.67943 18.8077C7.32771 19.2335 6.6974 19.2936 6.27159 18.9419C4.21525 17.2432 3 14.7199 3 12C3 7.4588 6.36321 3.70336 10.7349 3.08825L10.3536 2.70715C9.96307 2.31662 9.96303 1.68342 10.3536 1.29289ZM11.4142 1.64645C11.219 1.45118 10.9024 1.45118 10.7071 1.64645C10.5119 1.8417 10.5118 2.15825 10.7071 2.35351C10.7071 2.3535 10.7071 2.35353 10.7071 2.35351L11.8386 3.48451L11.2999 3.52841C6.93309 3.88428 3.5 7.54135 3.5 12C3.5 14.569 4.64726 16.9516 6.59002 18.5564C6.80292 18.7322 7.11808 18.7022 7.29394 18.4893C7.46981 18.2764 7.43978 17.9612 7.22688 17.7854C5.51193 16.3688 4.5 14.2677 4.5 12C4.5 8.13538 7.42278 4.95375 11.1786 4.54449L11.8836 4.46766L10.7073 5.64628C10.512 5.84154 10.5118 6.15829 10.7071 6.35355C10.9024 6.54882 11.219 6.54882 11.4142 6.35355L13.4142 4.35355C13.6095 4.15829 13.6095 3.84171 13.4142 3.64645L11.4142 1.64645ZM16.0518 5.0285C16.3867 4.58936 17.0142 4.50486 17.4533 4.83978C19.671 6.53112 21 9.15631 21 12C21 16.5414 17.6365 20.2969 13.2647 20.9118L13.6528 21.2993L13.7376 21.3974L13.7431 21.4048C14.0337 21.7965 14.0016 22.3519 13.6464 22.7071C13.2559 23.0976 12.6228 23.0976 12.2322 22.7071L10.2258 20.7006L10.1411 20.6026L10.1356 20.5952C9.84501 20.2035 9.87705 19.6481 10.2322 19.2929L12.2387 17.2864L12.3367 17.2018L12.3442 17.1963C12.7358 16.9057 13.2913 16.9377 13.6464 17.2929C14.037 17.6834 14.037 18.3165 13.6465 18.7071C13.6465 18.7071 13.6465 18.707 13.6465 18.7071L13.5188 18.8348C16.6545 18.1412 19 15.3444 19 12C19 9.78718 17.9676 7.74725 16.2405 6.43007C15.8013 6.09515 15.7169 5.46765 16.0518 5.0285ZM17.1501 5.23735C16.9306 5.06989 16.6168 5.11214 16.4493 5.33171C16.2819 5.55129 16.3241 5.86504 16.5437 6.0325C18.3932 7.44305 19.5 9.62924 19.5 12C19.5 15.865 16.5767 19.0468 12.8204 19.4556L12.1147 19.5324L13.2928 18.3536C13.4881 18.1583 13.4882 17.8417 13.2929 17.6464C13.1176 17.4711 12.844 17.4531 12.6488 17.5929L12.5793 17.6529L10.5858 19.6464C10.4104 19.8218 10.3925 20.0954 10.5323 20.2905L10.5923 20.36L12.5858 22.3536C12.781 22.5488 13.0976 22.5488 13.2929 22.3536C13.4682 22.1782 13.4862 21.9046 13.3464 21.7095L13.2865 21.6401L12.1599 20.5156L12.6992 20.4717C17.0664 20.1163 20.5 16.459 20.5 12C20.5 9.31422 19.2454 6.8353 17.1501 5.23735Z" fill="currentColor"/>
</svg>
